<svg width="415" height="413" viewBox="0 0 415 413" fill="none" xmlns="http://www.w3.org/2000/svg">
<g opacity="0.3">
<mask id="mask0_204_2042" style="mask-type:alpha" maskUnits="userSpaceOnUse" x="172" y="5" width="26" height="26">
<path d="M176.314 27.484C181.367 31.7434 189.194 30.7701 193.796 25.3104C198.398 19.8506 198.031 11.9718 192.978 7.71245C187.924 3.45311 180.097 4.42622 175.496 9.88597C170.894 15.3457 171.26 23.2247 176.314 27.484Z" fill="url(#paint0_linear_204_2042)"/>
</mask>
<g mask="url(#mask0_204_2042)">
<path d="M176.314 27.484C181.367 31.7434 189.194 30.7701 193.796 25.3104C198.398 19.8506 198.031 11.9718 192.978 7.71245C187.924 3.45311 180.097 4.42622 175.496 9.88597C170.894 15.3457 171.26 23.2247 176.314 27.484Z" fill="url(#paint1_linear_204_2042)"/>
</g>
<mask id="mask1_204_2042" style="mask-type:alpha" maskUnits="userSpaceOnUse" x="225" y="49" width="26" height="26">
<path d="M229.309 72.1509C234.362 76.4102 242.189 75.437 246.791 69.9772C251.393 64.5175 251.027 56.6386 245.973 52.3793C240.919 48.1199 233.092 49.093 228.491 54.5528C223.889 60.0125 224.255 67.8915 229.309 72.1509Z" fill="url(#paint2_linear_204_2042)"/>
</mask>
<g mask="url(#mask1_204_2042)">
<path d="M229.309 72.1509C234.362 76.4102 242.189 75.437 246.791 69.9772C251.393 64.5175 251.027 56.6386 245.973 52.3793C240.919 48.1199 233.092 49.093 228.491 54.5528C223.889 60.0125 224.255 67.8915 229.309 72.1509Z" fill="url(#paint3_linear_204_2042)"/>
</g>
<mask id="mask2_204_2042" style="mask-type:alpha" maskUnits="userSpaceOnUse" x="278" y="94" width="26" height="26">
<path d="M282.303 116.817C287.357 121.076 295.184 120.103 299.786 114.643C304.388 109.183 304.021 101.305 298.968 97.0452C293.914 92.7858 286.087 93.7589 281.485 99.2187C276.884 104.678 277.25 112.557 282.303 116.817Z" fill="url(#paint4_linear_204_2042)"/>
</mask>
<g mask="url(#mask2_204_2042)">
<path d="M282.303 116.817C287.357 121.076 295.184 120.103 299.786 114.643C304.388 109.183 304.021 101.305 298.968 97.0452C293.914 92.7858 286.087 93.7589 281.485 99.2187C276.884 104.678 277.25 112.557 282.303 116.817Z" fill="url(#paint5_linear_204_2042)"/>
</g>
<mask id="mask3_204_2042" style="mask-type:alpha" maskUnits="userSpaceOnUse" x="331" y="139" width="26" height="26">
<path d="M335.3 161.484C340.354 165.744 348.181 164.77 352.782 159.311C357.384 153.851 357.018 145.972 351.964 141.713C346.911 137.453 339.084 138.426 334.482 143.886C329.88 149.346 330.246 157.225 335.3 161.484Z" fill="url(#paint6_linear_204_2042)"/>
</mask>
<g mask="url(#mask3_204_2042)">
<path d="M335.3 161.484C340.354 165.744 348.181 164.77 352.782 159.311C357.384 153.851 357.018 145.972 351.964 141.713C346.911 137.453 339.084 138.426 334.482 143.886C329.88 149.346 330.246 157.225 335.3 161.484Z" fill="url(#paint7_linear_204_2042)"/>
</g>
<mask id="mask4_204_2042" style="mask-type:alpha" maskUnits="userSpaceOnUse" x="384" y="183" width="26" height="26">
<path d="M388.296 206.151C393.349 210.41 401.176 209.437 405.778 203.977C410.38 198.517 410.013 190.638 404.96 186.379C399.906 182.12 392.079 183.093 387.477 188.553C382.876 194.012 383.242 201.891 388.296 206.151Z" fill="url(#paint8_linear_204_2042)"/>
</mask>
<g mask="url(#mask4_204_2042)">
<path d="M388.296 206.151C393.349 210.41 401.176 209.437 405.778 203.977C410.38 198.517 410.013 190.638 404.96 186.379C399.906 182.12 392.079 183.093 387.477 188.553C382.876 194.012 383.242 201.891 388.296 206.151Z" fill="url(#paint9_linear_204_2042)"/>
</g>
<mask id="mask5_204_2042" style="mask-type:alpha" maskUnits="userSpaceOnUse" x="130" y="54" width="26" height="26">
<path d="M134.479 77.1188C139.533 81.3782 147.36 80.4051 151.962 74.9454C156.563 69.4856 156.197 61.6068 151.143 57.3475C146.09 53.0881 138.263 54.0612 133.661 59.5209C129.059 64.9807 129.426 72.8595 134.479 77.1188Z" fill="url(#paint10_linear_204_2042)"/>
</mask>
<g mask="url(#mask5_204_2042)">
<path d="M134.479 77.1188C139.533 81.3782 147.36 80.4051 151.962 74.9454C156.563 69.4856 156.197 61.6068 151.143 57.3475C146.09 53.0881 138.263 54.0612 133.661 59.5209C129.059 64.9807 129.426 72.8595 134.479 77.1188Z" fill="url(#paint11_linear_204_2042)"/>
</g>
<mask id="mask6_204_2042" style="mask-type:alpha" maskUnits="userSpaceOnUse" x="183" y="99" width="26" height="26">
<path d="M187.475 121.786C192.528 126.045 200.356 125.072 204.957 119.612C209.559 114.152 209.193 106.274 204.139 102.014C199.085 97.7548 191.258 98.7279 186.657 104.188C182.055 109.647 182.421 117.526 187.475 121.786Z" fill="url(#paint12_linear_204_2042)"/>
</mask>
<g mask="url(#mask6_204_2042)">
<path d="M187.475 121.786C192.528 126.045 200.356 125.072 204.957 119.612C209.559 114.152 209.193 106.274 204.139 102.014C199.085 97.7548 191.258 98.7279 186.657 104.188C182.055 109.647 182.421 117.526 187.475 121.786Z" fill="url(#paint13_linear_204_2042)"/>
</g>
<mask id="mask7_204_2042" style="mask-type:alpha" maskUnits="userSpaceOnUse" x="236" y="144" width="26" height="26">
<path d="M240.47 166.452C245.523 170.711 253.35 169.738 257.952 164.278C262.554 158.818 262.187 150.94 257.134 146.68C252.08 142.421 244.253 143.394 239.651 148.854C235.05 154.313 235.416 162.192 240.47 166.452Z" fill="url(#paint14_linear_204_2042)"/>
</mask>
<g mask="url(#mask7_204_2042)">
<path d="M240.47 166.452C245.523 170.711 253.35 169.738 257.952 164.278C262.554 158.818 262.187 150.94 257.134 146.68C252.08 142.421 244.253 143.394 239.651 148.854C235.05 154.313 235.416 162.192 240.47 166.452Z" fill="url(#paint15_linear_204_2042)"/>
</g>
<mask id="mask8_204_2042" style="mask-type:alpha" maskUnits="userSpaceOnUse" x="289" y="188" width="26" height="26">
<path d="M293.466 211.119C298.52 215.378 306.347 214.405 310.948 208.945C315.55 203.486 315.184 195.607 310.13 191.348C305.077 187.088 297.25 188.061 292.648 193.521C288.046 198.981 288.413 206.86 293.466 211.119Z" fill="url(#paint16_linear_204_2042)"/>
</mask>
<g mask="url(#mask8_204_2042)">
<path d="M293.466 211.119C298.52 215.378 306.347 214.405 310.948 208.945C315.55 203.486 315.184 195.607 310.13 191.348C305.077 187.088 297.25 188.061 292.648 193.521C288.046 198.981 288.413 206.86 293.466 211.119Z" fill="url(#paint17_linear_204_2042)"/>
</g>
<mask id="mask9_204_2042" style="mask-type:alpha" maskUnits="userSpaceOnUse" x="342" y="233" width="26" height="26">
<path d="M346.461 255.785C351.514 260.045 359.341 259.072 363.943 253.612C368.545 248.152 368.178 240.273 363.125 236.014C358.071 231.755 350.244 232.728 345.643 238.188C341.041 243.647 341.407 251.526 346.461 255.785Z" fill="url(#paint18_linear_204_2042)"/>
</mask>
<g mask="url(#mask9_204_2042)">
<path d="M346.461 255.785C351.514 260.045 359.341 259.072 363.943 253.612C368.545 248.152 368.178 240.273 363.125 236.014C358.071 231.755 350.244 232.728 345.643 238.188C341.041 243.647 341.407 251.526 346.461 255.785Z" fill="url(#paint19_linear_204_2042)"/>
</g>
<mask id="mask10_204_2042" style="mask-type:alpha" maskUnits="userSpaceOnUse" x="88" y="104" width="26" height="26">
<path d="M92.7325 126.651C97.7861 130.91 105.613 129.937 110.215 124.477C114.817 119.017 114.45 111.138 109.397 106.879C104.343 102.62 96.5162 103.593 91.9144 109.053C87.3127 114.512 87.679 122.391 92.7325 126.651Z" fill="url(#paint20_linear_204_2042)"/>
</mask>
<g mask="url(#mask10_204_2042)">
<path d="M92.7325 126.651C97.7861 130.91 105.613 129.937 110.215 124.477C114.817 119.017 114.45 111.138 109.397 106.879C104.343 102.62 96.5162 103.593 91.9144 109.053C87.3127 114.512 87.679 122.391 92.7325 126.651Z" fill="url(#paint21_linear_204_2042)"/>
</g>
<mask id="mask11_204_2042" style="mask-type:alpha" maskUnits="userSpaceOnUse" x="141" y="148" width="26" height="26">
<path d="M145.728 171.317C150.781 175.577 158.608 174.604 163.21 169.144C167.812 163.684 167.446 155.805 162.392 151.546C157.338 147.286 149.511 148.26 144.91 153.719C140.308 159.179 140.674 167.058 145.728 171.317Z" fill="url(#paint22_linear_204_2042)"/>
</mask>
<g mask="url(#mask11_204_2042)">
<path d="M145.728 171.317C150.781 175.577 158.608 174.604 163.21 169.144C167.812 163.684 167.446 155.805 162.392 151.546C157.338 147.286 149.511 148.26 144.91 153.719C140.308 159.179 140.674 167.058 145.728 171.317Z" fill="url(#paint23_linear_204_2042)"/>
</g>
<mask id="mask12_204_2042" style="mask-type:alpha" maskUnits="userSpaceOnUse" x="194" y="193" width="26" height="26">
<path d="M198.722 215.983C203.776 220.243 211.603 219.269 216.205 213.81C220.806 208.35 220.44 200.471 215.387 196.212C210.333 191.952 202.506 192.925 197.904 198.385C193.302 203.845 193.669 211.724 198.722 215.983Z" fill="url(#paint24_linear_204_2042)"/>
</mask>
<g mask="url(#mask12_204_2042)">
<path d="M198.722 215.983C203.776 220.243 211.603 219.269 216.205 213.81C220.806 208.35 220.44 200.471 215.387 196.212C210.333 191.952 202.506 192.925 197.904 198.385C193.302 203.845 193.669 211.724 198.722 215.983Z" fill="url(#paint25_linear_204_2042)"/>
</g>
<mask id="mask13_204_2042" style="mask-type:alpha" maskUnits="userSpaceOnUse" x="247" y="238" width="26" height="26">
<path d="M251.718 260.651C256.772 264.91 264.599 263.937 269.201 258.477C273.803 253.017 273.436 245.138 268.383 240.879C263.329 236.62 255.502 237.593 250.9 243.053C246.299 248.512 246.665 256.391 251.718 260.651Z" fill="url(#paint26_linear_204_2042)"/>
</mask>
<g mask="url(#mask13_204_2042)">
<path d="M251.718 260.651C256.772 264.91 264.599 263.937 269.201 258.477C273.803 253.017 273.436 245.138 268.383 240.879C263.329 236.62 255.502 237.593 250.9 243.053C246.299 248.512 246.665 256.391 251.718 260.651Z" fill="url(#paint27_linear_204_2042)"/>
</g>
<mask id="mask14_204_2042" style="mask-type:alpha" maskUnits="userSpaceOnUse" x="300" y="282" width="26" height="26">
<path d="M304.713 305.317C309.767 309.577 317.594 308.603 322.196 303.144C326.798 297.684 326.431 289.805 321.378 285.546C316.324 281.286 308.497 282.259 303.895 287.719C299.294 293.179 299.66 301.058 304.713 305.317Z" fill="url(#paint28_linear_204_2042)"/>
</mask>
<g mask="url(#mask14_204_2042)">
<path d="M304.713 305.317C309.767 309.577 317.594 308.603 322.196 303.144C326.798 297.684 326.431 289.805 321.378 285.546C316.324 281.286 308.497 282.259 303.895 287.719C299.294 293.179 299.66 301.058 304.713 305.317Z" fill="url(#paint29_linear_204_2042)"/>
</g>
<mask id="mask15_204_2042" style="mask-type:alpha" maskUnits="userSpaceOnUse" x="46" y="153" width="26" height="26">
<path d="M50.8986 176.285C55.9521 180.545 63.7793 179.571 68.381 174.112C72.9827 168.652 72.6164 160.773 67.5628 156.514C62.5093 152.254 54.6822 153.227 50.0805 158.687C45.4788 164.147 45.845 172.026 50.8986 176.285Z" fill="url(#paint30_linear_204_2042)"/>
</mask>
<g mask="url(#mask15_204_2042)">
<path d="M50.8986 176.285C55.9521 180.545 63.7793 179.571 68.381 174.112C72.9827 168.652 72.6164 160.773 67.5628 156.514C62.5093 152.254 54.6822 153.227 50.0805 158.687C45.4788 164.147 45.845 172.026 50.8986 176.285Z" fill="url(#paint31_linear_204_2042)"/>
</g>
<mask id="mask16_204_2042" style="mask-type:alpha" maskUnits="userSpaceOnUse" x="99" y="198" width="26" height="26">
<path d="M103.893 220.952C108.947 225.212 116.774 224.238 121.376 218.779C125.977 213.319 125.611 205.44 120.557 201.181C115.504 196.921 107.677 197.894 103.075 203.354C98.4734 208.814 98.8397 216.693 103.893 220.952Z" fill="url(#paint32_linear_204_2042)"/>
</mask>
<g mask="url(#mask16_204_2042)">
<path d="M103.893 220.952C108.947 225.212 116.774 224.238 121.376 218.779C125.977 213.319 125.611 205.44 120.557 201.181C115.504 196.921 107.677 197.894 103.075 203.354C98.4734 208.814 98.8397 216.693 103.893 220.952Z" fill="url(#paint33_linear_204_2042)"/>
</g>
<mask id="mask17_204_2042" style="mask-type:alpha" maskUnits="userSpaceOnUse" x="152" y="243" width="26" height="26">
<path d="M156.887 265.618C161.941 269.877 169.768 268.904 174.37 263.444C178.972 257.985 178.605 250.106 173.552 245.846C168.498 241.587 160.671 242.56 156.069 248.02C151.468 253.48 151.834 261.359 156.887 265.618Z" fill="url(#paint34_linear_204_2042)"/>
</mask>
<g mask="url(#mask17_204_2042)">
<path d="M156.887 265.618C161.941 269.877 169.768 268.904 174.37 263.444C178.972 257.985 178.605 250.106 173.552 245.846C168.498 241.587 160.671 242.56 156.069 248.02C151.468 253.48 151.834 261.359 156.887 265.618Z" fill="url(#paint35_linear_204_2042)"/>
</g>
<mask id="mask18_204_2042" style="mask-type:alpha" maskUnits="userSpaceOnUse" x="205" y="287" width="26" height="26">
<path d="M209.884 310.285C214.937 314.545 222.765 313.572 227.366 308.112C231.968 302.652 231.602 294.773 226.548 290.514C221.495 286.255 213.668 287.228 209.066 292.687C204.464 298.147 204.83 306.026 209.884 310.285Z" fill="url(#paint36_linear_204_2042)"/>
</mask>
<g mask="url(#mask18_204_2042)">
<path d="M209.884 310.285C214.937 314.545 222.765 313.572 227.366 308.112C231.968 302.652 231.602 294.773 226.548 290.514C221.495 286.255 213.668 287.228 209.066 292.687C204.464 298.147 204.83 306.026 209.884 310.285Z" fill="url(#paint37_linear_204_2042)"/>
</g>
<mask id="mask19_204_2042" style="mask-type:alpha" maskUnits="userSpaceOnUse" x="258" y="332" width="26" height="26">
<path d="M262.88 354.952C267.933 359.211 275.76 358.238 280.362 352.778C284.964 347.319 284.597 339.44 279.544 335.18C274.49 330.921 266.663 331.894 262.061 337.354C257.46 342.814 257.826 350.693 262.88 354.952Z" fill="url(#paint38_linear_204_2042)"/>
</mask>
<g mask="url(#mask19_204_2042)">
<path d="M262.88 354.952C267.933 359.211 275.76 358.238 280.362 352.778C284.964 347.319 284.597 339.44 279.544 335.18C274.49 330.921 266.663 331.894 262.061 337.354C257.46 342.814 257.826 350.693 262.88 354.952Z" fill="url(#paint39_linear_204_2042)"/>
</g>
<mask id="mask20_204_2042" style="mask-type:alpha" maskUnits="userSpaceOnUse" x="5" y="203" width="25" height="26">
<path d="M9.15051 225.817C14.2041 230.076 22.0312 229.103 26.6329 223.644C31.2346 218.184 30.8684 210.305 25.8148 206.045C20.7613 201.786 12.9341 202.759 8.33235 208.219C3.73065 213.679 4.09696 221.558 9.15051 225.817Z" fill="url(#paint40_linear_204_2042)"/>
</mask>
<g mask="url(#mask20_204_2042)">
<path d="M9.15051 225.817C14.2041 230.076 22.0312 229.103 26.6329 223.644C31.2346 218.184 30.8684 210.305 25.8148 206.045C20.7613 201.786 12.9341 202.759 8.33235 208.219C3.73065 213.679 4.09696 221.558 9.15051 225.817Z" fill="url(#paint41_linear_204_2042)"/>
</g>
<mask id="mask21_204_2042" style="mask-type:alpha" maskUnits="userSpaceOnUse" x="58" y="248" width="25" height="26">
<path d="M62.1461 270.484C67.1997 274.743 75.0268 273.77 79.6285 268.31C84.2302 262.851 83.864 254.972 78.8104 250.712C73.7569 246.453 65.9297 247.426 61.328 252.886C56.7263 258.346 57.0926 266.225 62.1461 270.484Z" fill="url(#paint42_linear_204_2042)"/>
</mask>
<g mask="url(#mask21_204_2042)">
<path d="M62.1461 270.484C67.1997 274.743 75.0268 273.77 79.6285 268.31C84.2302 262.851 83.864 254.972 78.8104 250.712C73.7569 246.453 65.9297 247.426 61.328 252.886C56.7263 258.346 57.0926 266.225 62.1461 270.484Z" fill="url(#paint43_linear_204_2042)"/>
</g>
<mask id="mask22_204_2042" style="mask-type:alpha" maskUnits="userSpaceOnUse" x="111" y="292" width="25" height="26">
<path d="M115.14 315.15C120.194 319.409 128.021 318.436 132.623 312.976C137.224 307.517 136.858 299.638 131.805 295.378C126.751 291.119 118.924 292.092 114.322 297.552C109.72 303.012 110.087 310.89 115.14 315.15Z" fill="url(#paint44_linear_204_2042)"/>
</mask>
<g mask="url(#mask22_204_2042)">
<path d="M115.14 315.15C120.194 319.409 128.021 318.436 132.623 312.976C137.224 307.517 136.858 299.638 131.805 295.378C126.751 291.119 118.924 292.092 114.322 297.552C109.72 303.012 110.087 310.89 115.14 315.15Z" fill="url(#paint45_linear_204_2042)"/>
</g>
<mask id="mask23_204_2042" style="mask-type:alpha" maskUnits="userSpaceOnUse" x="164" y="337" width="25" height="26">
<path d="M168.136 359.817C173.19 364.077 181.017 363.103 185.619 357.644C190.22 352.184 189.854 344.305 184.801 340.046C179.747 335.786 171.92 336.76 167.318 342.219C162.716 347.679 163.083 355.558 168.136 359.817Z" fill="url(#paint46_linear_204_2042)"/>
</mask>
<g mask="url(#mask23_204_2042)">
<path d="M168.136 359.817C173.19 364.077 181.017 363.103 185.619 357.644C190.22 352.184 189.854 344.305 184.801 340.046C179.747 335.786 171.92 336.76 167.318 342.219C162.716 347.679 163.083 355.558 168.136 359.817Z" fill="url(#paint47_linear_204_2042)"/>
</g>
<mask id="mask24_204_2042" style="mask-type:alpha" maskUnits="userSpaceOnUse" x="217" y="382" width="25" height="26">
<path d="M221.132 404.484C226.186 408.743 234.013 407.77 238.614 402.31C243.216 396.85 242.85 388.971 237.796 384.712C232.743 380.453 224.915 381.426 220.314 386.886C215.712 392.346 216.078 400.224 221.132 404.484Z" fill="url(#paint48_linear_204_2042)"/>
</mask>
<g mask="url(#mask24_204_2042)">
<path d="M221.132 404.484C226.186 408.743 234.013 407.77 238.614 402.31C243.216 396.85 242.85 388.971 237.796 384.712C232.743 380.453 224.915 381.426 220.314 386.886C215.712 392.346 216.078 400.224 221.132 404.484Z" fill="url(#paint49_linear_204_2042)"/>
</g>
</g>
<defs>
<linearGradient id="paint0_linear_204_2042" x1="70.4594" y1="329.826" x2="211.048" y2="-127.995" gradientUnits="userSpaceOnUse">
<stop/>
<stop offset="1" stop-color="white"/>
</linearGradient>
<linearGradient id="paint1_linear_204_2042" x1="70.4594" y1="329.826" x2="211.048" y2="-127.995" gradientUnits="userSpaceOnUse">
<stop stop-color="#97C3F9"/>
<stop offset="1" stop-color="#93C1F9"/>
</linearGradient>
<linearGradient id="paint2_linear_204_2042" x1="132.771" y1="348.962" x2="273.359" y2="-108.859" gradientUnits="userSpaceOnUse">
<stop/>
<stop offset="1" stop-color="white"/>
</linearGradient>
<linearGradient id="paint3_linear_204_2042" x1="132.771" y1="348.962" x2="273.359" y2="-108.859" gradientUnits="userSpaceOnUse">
<stop stop-color="#97C3F9"/>
<stop offset="1" stop-color="#93C1F9"/>
</linearGradient>
<linearGradient id="paint4_linear_204_2042" x1="195.081" y1="368.096" x2="335.67" y2="-89.7245" gradientUnits="userSpaceOnUse">
<stop/>
<stop offset="1" stop-color="white"/>
</linearGradient>
<linearGradient id="paint5_linear_204_2042" x1="195.081" y1="368.096" x2="335.67" y2="-89.7245" gradientUnits="userSpaceOnUse">
<stop stop-color="#97C3F9"/>
<stop offset="1" stop-color="#93C1F9"/>
</linearGradient>
<linearGradient id="paint6_linear_204_2042" x1="257.394" y1="387.231" x2="397.983" y2="-70.59" gradientUnits="userSpaceOnUse">
<stop/>
<stop offset="1" stop-color="white"/>
</linearGradient>
<linearGradient id="paint7_linear_204_2042" x1="257.394" y1="387.231" x2="397.983" y2="-70.59" gradientUnits="userSpaceOnUse">
<stop stop-color="#97C3F9"/>
<stop offset="1" stop-color="#93C1F9"/>
</linearGradient>
<linearGradient id="paint8_linear_204_2042" x1="319.706" y1="406.366" x2="460.295" y2="-51.4554" gradientUnits="userSpaceOnUse">
<stop/>
<stop offset="1" stop-color="white"/>
</linearGradient>
<linearGradient id="paint9_linear_204_2042" x1="319.706" y1="406.366" x2="460.295" y2="-51.4554" gradientUnits="userSpaceOnUse">
<stop stop-color="#97C3F9"/>
<stop offset="1" stop-color="#93C1F9"/>
</linearGradient>
<linearGradient id="paint10_linear_204_2042" x1="49.1963" y1="323.296" x2="189.785" y2="-134.521" gradientUnits="userSpaceOnUse">
<stop/>
<stop offset="1" stop-color="white"/>
</linearGradient>
<linearGradient id="paint11_linear_204_2042" x1="49.1963" y1="323.296" x2="189.785" y2="-134.521" gradientUnits="userSpaceOnUse">
<stop stop-color="#97C3F9"/>
<stop offset="1" stop-color="#93C1F9"/>
</linearGradient>
<linearGradient id="paint12_linear_204_2042" x1="111.508" y1="342.43" x2="252.097" y2="-115.387" gradientUnits="userSpaceOnUse">
<stop/>
<stop offset="1" stop-color="white"/>
</linearGradient>
<linearGradient id="paint13_linear_204_2042" x1="111.508" y1="342.43" x2="252.097" y2="-115.387" gradientUnits="userSpaceOnUse">
<stop stop-color="#97C3F9"/>
<stop offset="1" stop-color="#93C1F9"/>
</linearGradient>
<linearGradient id="paint14_linear_204_2042" x1="173.819" y1="361.564" x2="314.408" y2="-96.2521" gradientUnits="userSpaceOnUse">
<stop/>
<stop offset="1" stop-color="white"/>
</linearGradient>
<linearGradient id="paint15_linear_204_2042" x1="173.819" y1="361.564" x2="314.408" y2="-96.2521" gradientUnits="userSpaceOnUse">
<stop stop-color="#97C3F9"/>
<stop offset="1" stop-color="#93C1F9"/>
</linearGradient>
<linearGradient id="paint16_linear_204_2042" x1="236.132" y1="380.7" x2="376.721" y2="-77.1167" gradientUnits="userSpaceOnUse">
<stop/>
<stop offset="1" stop-color="white"/>
</linearGradient>
<linearGradient id="paint17_linear_204_2042" x1="236.132" y1="380.7" x2="376.721" y2="-77.1167" gradientUnits="userSpaceOnUse">
<stop stop-color="#97C3F9"/>
<stop offset="1" stop-color="#93C1F9"/>
</linearGradient>
<linearGradient id="paint18_linear_204_2042" x1="298.442" y1="399.835" x2="439.031" y2="-57.9816" gradientUnits="userSpaceOnUse">
<stop/>
<stop offset="1" stop-color="white"/>
</linearGradient>
<linearGradient id="paint19_linear_204_2042" x1="298.442" y1="399.835" x2="439.031" y2="-57.9816" gradientUnits="userSpaceOnUse">
<stop stop-color="#97C3F9"/>
<stop offset="1" stop-color="#93C1F9"/>
</linearGradient>
<linearGradient id="paint20_linear_204_2042" x1="27.9315" y1="316.767" x2="168.52" y2="-141.054" gradientUnits="userSpaceOnUse">
<stop/>
<stop offset="1" stop-color="white"/>
</linearGradient>
<linearGradient id="paint21_linear_204_2042" x1="27.9315" y1="316.767" x2="168.52" y2="-141.054" gradientUnits="userSpaceOnUse">
<stop stop-color="#97C3F9"/>
<stop offset="1" stop-color="#93C1F9"/>
</linearGradient>
<linearGradient id="paint22_linear_204_2042" x1="90.2431" y1="335.902" x2="230.832" y2="-121.919" gradientUnits="userSpaceOnUse">
<stop/>
<stop offset="1" stop-color="white"/>
</linearGradient>
<linearGradient id="paint23_linear_204_2042" x1="90.2431" y1="335.902" x2="230.832" y2="-121.919" gradientUnits="userSpaceOnUse">
<stop stop-color="#97C3F9"/>
<stop offset="1" stop-color="#93C1F9"/>
</linearGradient>
<linearGradient id="paint24_linear_204_2042" x1="152.554" y1="355.036" x2="293.142" y2="-102.785" gradientUnits="userSpaceOnUse">
<stop/>
<stop offset="1" stop-color="white"/>
</linearGradient>
<linearGradient id="paint25_linear_204_2042" x1="152.554" y1="355.036" x2="293.142" y2="-102.785" gradientUnits="userSpaceOnUse">
<stop stop-color="#97C3F9"/>
<stop offset="1" stop-color="#93C1F9"/>
</linearGradient>
<linearGradient id="paint26_linear_204_2042" x1="214.866" y1="374.171" x2="355.455" y2="-83.6498" gradientUnits="userSpaceOnUse">
<stop/>
<stop offset="1" stop-color="white"/>
</linearGradient>
<linearGradient id="paint27_linear_204_2042" x1="214.866" y1="374.171" x2="355.455" y2="-83.6498" gradientUnits="userSpaceOnUse">
<stop stop-color="#97C3F9"/>
<stop offset="1" stop-color="#93C1F9"/>
</linearGradient>
<linearGradient id="paint28_linear_204_2042" x1="277.178" y1="393.306" x2="417.766" y2="-64.5152" gradientUnits="userSpaceOnUse">
<stop/>
<stop offset="1" stop-color="white"/>
</linearGradient>
<linearGradient id="paint29_linear_204_2042" x1="277.178" y1="393.306" x2="417.766" y2="-64.5152" gradientUnits="userSpaceOnUse">
<stop stop-color="#97C3F9"/>
<stop offset="1" stop-color="#93C1F9"/>
</linearGradient>
<linearGradient id="paint30_linear_204_2042" x1="6.66782" y1="310.237" x2="147.256" y2="-147.584" gradientUnits="userSpaceOnUse">
<stop/>
<stop offset="1" stop-color="white"/>
</linearGradient>
<linearGradient id="paint31_linear_204_2042" x1="6.66782" y1="310.237" x2="147.256" y2="-147.584" gradientUnits="userSpaceOnUse">
<stop stop-color="#97C3F9"/>
<stop offset="1" stop-color="#93C1F9"/>
</linearGradient>
<linearGradient id="paint32_linear_204_2042" x1="68.9787" y1="329.372" x2="209.567" y2="-128.449" gradientUnits="userSpaceOnUse">
<stop/>
<stop offset="1" stop-color="white"/>
</linearGradient>
<linearGradient id="paint33_linear_204_2042" x1="68.9787" y1="329.372" x2="209.567" y2="-128.449" gradientUnits="userSpaceOnUse">
<stop stop-color="#97C3F9"/>
<stop offset="1" stop-color="#93C1F9"/>
</linearGradient>
<linearGradient id="paint34_linear_204_2042" x1="131.289" y1="348.506" x2="271.877" y2="-109.315" gradientUnits="userSpaceOnUse">
<stop/>
<stop offset="1" stop-color="white"/>
</linearGradient>
<linearGradient id="paint35_linear_204_2042" x1="131.289" y1="348.506" x2="271.877" y2="-109.315" gradientUnits="userSpaceOnUse">
<stop stop-color="#97C3F9"/>
<stop offset="1" stop-color="#93C1F9"/>
</linearGradient>
<linearGradient id="paint36_linear_204_2042" x1="193.602" y1="367.642" x2="334.19" y2="-90.1795" gradientUnits="userSpaceOnUse">
<stop/>
<stop offset="1" stop-color="white"/>
</linearGradient>
<linearGradient id="paint37_linear_204_2042" x1="193.602" y1="367.642" x2="334.19" y2="-90.1795" gradientUnits="userSpaceOnUse">
<stop stop-color="#97C3F9"/>
<stop offset="1" stop-color="#93C1F9"/>
</linearGradient>
<linearGradient id="paint38_linear_204_2042" x1="255.914" y1="386.776" x2="396.502" y2="-71.045" gradientUnits="userSpaceOnUse">
<stop/>
<stop offset="1" stop-color="white"/>
</linearGradient>
<linearGradient id="paint39_linear_204_2042" x1="255.914" y1="386.776" x2="396.502" y2="-71.045" gradientUnits="userSpaceOnUse">
<stop stop-color="#97C3F9"/>
<stop offset="1" stop-color="#93C1F9"/>
</linearGradient>
<linearGradient id="paint40_linear_204_2042" x1="-14.5968" y1="303.707" x2="125.991" y2="-154.114" gradientUnits="userSpaceOnUse">
<stop/>
<stop offset="1" stop-color="white"/>
</linearGradient>
<linearGradient id="paint41_linear_204_2042" x1="-14.5968" y1="303.707" x2="125.991" y2="-154.114" gradientUnits="userSpaceOnUse">
<stop stop-color="#97C3F9"/>
<stop offset="1" stop-color="#93C1F9"/>
</linearGradient>
<linearGradient id="paint42_linear_204_2042" x1="47.7151" y1="322.842" x2="188.303" y2="-134.979" gradientUnits="userSpaceOnUse">
<stop/>
<stop offset="1" stop-color="white"/>
</linearGradient>
<linearGradient id="paint43_linear_204_2042" x1="47.7151" y1="322.842" x2="188.303" y2="-134.979" gradientUnits="userSpaceOnUse">
<stop stop-color="#97C3F9"/>
<stop offset="1" stop-color="#93C1F9"/>
</linearGradient>
<linearGradient id="paint44_linear_204_2042" x1="110.025" y1="341.976" x2="250.614" y2="-115.844" gradientUnits="userSpaceOnUse">
<stop/>
<stop offset="1" stop-color="white"/>
</linearGradient>
<linearGradient id="paint45_linear_204_2042" x1="110.025" y1="341.976" x2="250.614" y2="-115.844" gradientUnits="userSpaceOnUse">
<stop stop-color="#97C3F9"/>
<stop offset="1" stop-color="#93C1F9"/>
</linearGradient>
<linearGradient id="paint46_linear_204_2042" x1="172.338" y1="361.112" x2="312.926" y2="-96.7092" gradientUnits="userSpaceOnUse">
<stop/>
<stop offset="1" stop-color="white"/>
</linearGradient>
<linearGradient id="paint47_linear_204_2042" x1="172.338" y1="361.112" x2="312.926" y2="-96.7092" gradientUnits="userSpaceOnUse">
<stop stop-color="#97C3F9"/>
<stop offset="1" stop-color="#93C1F9"/>
</linearGradient>
<linearGradient id="paint48_linear_204_2042" x1="234.65" y1="380.246" x2="375.238" y2="-77.5746" gradientUnits="userSpaceOnUse">
<stop/>
<stop offset="1" stop-color="white"/>
</linearGradient>
<linearGradient id="paint49_linear_204_2042" x1="234.65" y1="380.246" x2="375.238" y2="-77.5746" gradientUnits="userSpaceOnUse">
<stop stop-color="#97C3F9"/>
<stop offset="1" stop-color="#93C1F9"/>
</linearGradient>
</defs>
</svg>
